<svg width="18" height="18" viewBox="0 0 18 18" fill="none" xmlns="http://www.w3.org/2000/svg">
<path d="M8.83325 17C13.2515 17 16.8333 13.4183 16.8333 9C16.8333 4.58172 13.2515 1 8.83325 1C4.41497 1 0.833252 4.58172 0.833252 9C0.833252 13.4183 4.41497 17 8.83325 17Z" fill="#B4DFFB"/>
<path d="M16.8333 9C16.8333 13.4183 13.2521 17 8.83444 17M16.8333 9C16.8333 4.58172 13.2521 1 8.83444 1M16.8333 9L12.8333 9L8.83325 9L0.833252 9M8.83444 17C4.41682 17 0.83563 13.4183 0.83563 9C0.83563 4.58172 4.41682 1 8.83444 1M8.83444 17C11.1194 17 12.9718 13.4183 12.9718 9C12.9718 4.58172 11.1194 1 8.83444 1M8.83444 17C6.54946 17 4.69713 13.4183 4.69713 9C4.69713 4.58172 6.54946 1 8.83444 1M8.83444 17C12.3381 17 15.1783 13.4183 15.1783 9C15.1783 4.58172 12.3381 1 8.83444 1M8.83444 17C5.33081 17 2.49056 13.4183 2.49056 9C2.49056 4.58172 5.33081 1 8.83444 1M10.5713 9C10.5713 13.4183 9.83033 17 8.91634 17C8.00235 17 7.26141 13.4183 7.26141 9C7.26141 4.58172 8.00235 1 8.91634 1C9.83033 1 10.5713 4.58172 10.5713 9Z" stroke="#0A3586" stroke-width="0.75" stroke-linecap="square"/>
</svg>
